<svg xmlns="http://www.w3.org/2000/svg" xmlns:xlink="http://www.w3.org/1999/xlink" width="150" zoomAndPan="magnify" viewBox="0 0 112.5 112.499997" height="150" preserveAspectRatio="xMidYMid meet" version="1.0"><defs><clipPath id="248f170665"><path d="M 15.015625 13.167969 L 96.976562 13.167969 L 96.976562 28 L 15.015625 28 Z M 15.015625 13.167969 " clip-rule="nonzero"/></clipPath><clipPath id="5fd6d58cbc"><path d="M 34 48 L 96.976562 48 L 96.976562 64 L 34 64 Z M 34 48 " clip-rule="nonzero"/></clipPath><clipPath id="a1790031fb"><path d="M 56 84 L 96.976562 84 L 96.976562 98.828125 L 56 98.828125 Z M 56 84 " clip-rule="nonzero"/></clipPath></defs><g clip-path="url(#248f170665)"><path fill="#f04c24" d="M 89.972656 27.261719 L 21.867188 27.261719 C 21.398438 27.261719 20.929688 27.214844 20.46875 27.121094 C 20.007812 27.03125 19.558594 26.894531 19.125 26.714844 C 18.6875 26.535156 18.277344 26.3125 17.882812 26.050781 C 17.492188 25.789062 17.128906 25.492188 16.796875 25.160156 C 16.464844 24.828125 16.167969 24.464844 15.90625 24.074219 C 15.644531 23.683594 15.421875 23.269531 15.242188 22.835938 C 15.0625 22.398438 14.925781 21.949219 14.835938 21.488281 C 14.742188 21.027344 14.699219 20.5625 14.699219 20.089844 C 14.699219 19.621094 14.742188 19.152344 14.835938 18.691406 C 14.925781 18.230469 15.0625 17.78125 15.242188 17.347656 C 15.421875 16.910156 15.644531 16.5 15.90625 16.105469 C 16.167969 15.714844 16.464844 15.351562 16.796875 15.019531 C 17.128906 14.6875 17.492188 14.390625 17.882812 14.128906 C 18.277344 13.867188 18.6875 13.644531 19.125 13.464844 C 19.558594 13.285156 20.007812 13.148438 20.46875 13.058594 C 20.929688 12.964844 21.398438 12.921875 21.867188 12.921875 L 89.972656 12.921875 C 90.445312 12.921875 90.910156 12.964844 91.371094 13.058594 C 91.835938 13.148438 92.28125 13.285156 92.71875 13.464844 C 93.152344 13.644531 93.566406 13.867188 93.957031 14.128906 C 94.347656 14.390625 94.710938 14.6875 95.042969 15.019531 C 95.375 15.351562 95.671875 15.714844 95.933594 16.105469 C 96.195312 16.5 96.417969 16.910156 96.597656 17.347656 C 96.777344 17.78125 96.914062 18.230469 97.007812 18.691406 C 97.097656 19.152344 97.144531 19.621094 97.144531 20.089844 C 97.144531 20.5625 97.097656 21.027344 97.007812 21.488281 C 96.914062 21.949219 96.777344 22.398438 96.597656 22.835938 C 96.417969 23.269531 96.195312 23.683594 95.933594 24.074219 C 95.671875 24.464844 95.375 24.828125 95.042969 25.160156 C 94.710938 25.492188 94.347656 25.789062 93.957031 26.050781 C 93.566406 26.3125 93.152344 26.535156 92.71875 26.714844 C 92.28125 26.894531 91.835938 27.03125 91.371094 27.121094 C 90.910156 27.214844 90.445312 27.261719 89.972656 27.261719 Z M 89.972656 27.261719 " fill-opacity="1" fill-rule="nonzero"/></g><g clip-path="url(#5fd6d58cbc)"><path fill="#f04c24" d="M 89.972656 63.09375 L 41.84375 63.09375 C 41.375 63.09375 40.910156 63.046875 40.445312 62.953125 C 39.984375 62.863281 39.535156 62.726562 39.101562 62.546875 C 38.667969 62.367188 38.253906 62.144531 37.863281 61.882812 C 37.46875 61.621094 37.109375 61.324219 36.777344 60.992188 C 36.441406 60.660156 36.144531 60.296875 35.882812 59.90625 C 35.621094 59.515625 35.402344 59.101562 35.222656 58.664062 C 35.042969 58.230469 34.90625 57.78125 34.8125 57.320312 C 34.722656 56.859375 34.675781 56.390625 34.675781 55.921875 C 34.675781 55.449219 34.722656 54.984375 34.8125 54.523438 C 34.90625 54.0625 35.042969 53.613281 35.222656 53.179688 C 35.402344 52.742188 35.621094 52.328125 35.882812 51.9375 C 36.144531 51.546875 36.441406 51.183594 36.777344 50.851562 C 37.109375 50.519531 37.46875 50.222656 37.863281 49.960938 C 38.253906 49.699219 38.667969 49.476562 39.101562 49.296875 C 39.535156 49.117188 39.984375 48.980469 40.445312 48.890625 C 40.910156 48.796875 41.375 48.75 41.84375 48.75 L 89.972656 48.75 C 90.445312 48.75 90.910156 48.796875 91.371094 48.890625 C 91.835938 48.980469 92.28125 49.117188 92.71875 49.296875 C 93.152344 49.476562 93.566406 49.699219 93.957031 49.960938 C 94.347656 50.222656 94.710938 50.519531 95.042969 50.851562 C 95.375 51.183594 95.671875 51.546875 95.933594 51.9375 C 96.195312 52.328125 96.417969 52.742188 96.597656 53.179688 C 96.777344 53.613281 96.914062 54.0625 97.007812 54.523438 C 97.097656 54.984375 97.144531 55.449219 97.144531 55.921875 C 97.144531 56.390625 97.097656 56.859375 97.007812 57.320312 C 96.914062 57.78125 96.777344 58.230469 96.597656 58.664062 C 96.417969 59.101562 96.195312 59.515625 95.933594 59.90625 C 95.671875 60.296875 95.375 60.660156 95.042969 60.992188 C 94.710938 61.324219 94.347656 61.621094 93.957031 61.882812 C 93.566406 62.144531 93.152344 62.367188 92.71875 62.546875 C 92.28125 62.726562 91.835938 62.863281 91.371094 62.953125 C 90.910156 63.046875 90.445312 63.09375 89.972656 63.09375 Z M 89.972656 63.09375 " fill-opacity="1" fill-rule="nonzero"/></g><g clip-path="url(#a1790031fb)"><path fill="#f04c24" d="M 63.355469 84.660156 L 89.972656 84.660156 C 90.445312 84.660156 90.910156 84.703125 91.371094 84.796875 C 91.835938 84.886719 92.28125 85.023438 92.71875 85.203125 C 93.152344 85.382812 93.566406 85.605469 93.957031 85.867188 C 94.347656 86.128906 94.710938 86.425781 95.042969 86.757812 C 95.375 87.089844 95.671875 87.453125 95.933594 87.84375 C 96.195312 88.238281 96.417969 88.648438 96.597656 89.085938 C 96.777344 89.519531 96.914062 89.96875 97.007812 90.429688 C 97.097656 90.890625 97.144531 91.359375 97.144531 91.828125 C 97.144531 92.300781 97.097656 92.765625 97.007812 93.226562 C 96.914062 93.6875 96.777344 94.136719 96.597656 94.574219 C 96.417969 95.007812 96.195312 95.421875 95.933594 95.8125 C 95.671875 96.203125 95.375 96.566406 95.042969 96.898438 C 94.710938 97.230469 94.347656 97.527344 93.957031 97.789062 C 93.566406 98.050781 93.152344 98.273438 92.71875 98.453125 C 92.28125 98.632812 91.835938 98.769531 91.371094 98.859375 C 90.910156 98.953125 90.445312 99 89.972656 99 L 63.355469 99 C 62.886719 99 62.417969 98.953125 61.957031 98.859375 C 61.496094 98.769531 61.046875 98.632812 60.613281 98.453125 C 60.175781 98.273438 59.761719 98.050781 59.371094 97.789062 C 58.980469 97.527344 58.617188 97.230469 58.285156 96.898438 C 57.953125 96.566406 57.65625 96.203125 57.394531 95.8125 C 57.132812 95.421875 56.910156 95.007812 56.730469 94.574219 C 56.550781 94.136719 56.414062 93.6875 56.324219 93.226562 C 56.230469 92.765625 56.183594 92.300781 56.183594 91.828125 C 56.183594 91.359375 56.230469 90.890625 56.324219 90.429688 C 56.414062 89.96875 56.550781 89.519531 56.730469 89.085938 C 56.910156 88.648438 57.132812 88.238281 57.394531 87.84375 C 57.65625 87.453125 57.953125 87.089844 58.285156 86.757812 C 58.617188 86.425781 58.980469 86.128906 59.371094 85.867188 C 59.761719 85.605469 60.175781 85.382812 60.613281 85.203125 C 61.046875 85.023438 61.496094 84.886719 61.957031 84.796875 C 62.417969 84.703125 62.886719 84.660156 63.355469 84.660156 Z M 63.355469 84.660156 " fill-opacity="1" fill-rule="nonzero"/></g></svg>